<svg width="513" height="457" viewBox="0 0 513 457" fill="none" xmlns="http://www.w3.org/2000/svg">
<path d="M495.571 456.385C462.269 450.451 404.385 420.145 439.267 346.392C482.869 254.2 477.707 249.968 344.418 201.617C211.128 153.267 193.77 83.8942 233.519 51.1926C267.315 23.3891 361.719 40.497 330.318 128.251C298.916 216.006 89.7036 201.865 35.4275 32.8853" stroke="url(#paint0_linear_84_14)"/>
<path fill-rule="evenodd" clip-rule="evenodd" d="M40.5382 73.6352L37.5423 73.793L36.1153 46.6986C35.7042 46.6475 35.3015 46.5669 34.9097 46.4587L23.0211 69.5509L20.3538 68.1777L32.2042 45.1599C31.8386 44.8962 31.4946 44.604 31.1754 44.2863L9.17059 59.2648L7.48248 56.7848L29.4546 41.8286C29.1373 41.1423 28.9084 40.4051 28.7832 39.6307L1.72039 40.7083L1.60104 37.7107L28.8302 36.6265C28.9242 36.1456 29.0589 35.6785 29.2309 35.2291L4.68164 22.9981L6.01946 20.3129L30.7877 32.653C31.0883 32.3108 31.4162 31.9928 31.7683 31.7023L15.7652 8.54474L18.2332 6.8392L34.3958 30.2275C34.6692 30.1331 34.9493 30.0522 35.2351 29.9857L33.7555 1.89269L36.7514 1.7349L38.231 29.8279C38.8064 29.8993 39.3651 30.0288 39.9007 30.2104L53.3106 4.16326L55.9779 5.53646L42.5277 31.6617C42.8065 31.888 43.0708 32.1316 43.319 32.3912L67.002 16.2704L68.6901 18.7504L44.9781 34.8909C45.1282 35.2383 45.256 35.598 45.3594 35.9684L73.544 34.8462L73.6634 37.8438L45.6456 38.9594C45.6176 39.3064 45.5685 39.648 45.4996 39.9828L70.464 52.4206L69.1261 55.1058L44.3775 42.7755C44.1745 43.099 43.9502 43.4081 43.7065 43.7008L59.1661 66.0718L56.6981 67.7773L41.4 45.6399C40.696 46.044 39.9273 46.3508 39.1112 46.5409L40.5382 73.6352Z" fill="#83A17D"/>
<defs>
<linearGradient id="paint0_linear_84_14" x1="-42.336" y1="-92.6995" x2="450.773" y2="392.8" gradientUnits="userSpaceOnUse">
<stop/>
<stop offset="0.553176" stop-color="white"/>
<stop offset="1" stop-opacity="0"/>
</linearGradient>
</defs>
</svg>
